<?xml version="1.0" encoding="UTF-8"?>
<svg width="1710px" height="800px" viewBox="0 0 1710 800" version="1.1" xmlns="http://www.w3.org/2000/svg" xmlns:xlink="http://www.w3.org/1999/xlink">
    <!-- Generator: Sketch 48.2 (47327) - http://www.bohemiancoding.com/sketch -->
    <title>react-aframe</title>
    <desc>Created with Sketch.</desc>
    <defs></defs>
    <g id="Page-1" stroke="none" stroke-width="1" fill="none" fill-rule="evenodd">
        <g id="react-aframe">
            <rect id="Rectangle" fill="#03A9FC" x="0" y="0" width="1710" height="800"></rect>
            <g id="A-Frame" transform="translate(1034.000000, 151.000000)" fill="#FAFAFA" fill-rule="nonzero">
                <path d="M349.461099,342.741331 L133.191649,342.741331 L86.6759898,482 L62,482 L226.861138,0 L257.138862,0 L422,482 L395.90585,482 L349.461099,342.741331 Z M342,320.64404 L241.854873,20 L141,321 L342,321 L342,320.64404 Z" id="Shape"></path>
            </g>
            <path d="M919.692132,433.340923 C918.750038,433.340923 917.953094,433.015077 917.301302,432.364308 L883.390528,399.700308 C883.028113,399.411385 882.529792,398.941538 881.895566,398.289846 C881.26134,397.639077 880.256377,396.454769 878.879755,394.735077 C877.503132,393.018154 876.270736,391.254154 875.184415,389.445846 C874.098094,387.637538 873.128264,385.448923 872.276774,382.880923 C871.426208,380.312923 871,377.816923 871,375.393846 C871,367.436 873.300226,361.214462 877.901604,356.728308 C882.502981,352.243077 888.860962,350 896.975547,350 C899.222151,350 901.514057,350.388615 903.85034,351.166769 C906.186623,351.944923 908.361113,352.993538 910.371962,354.314462 C912.381887,355.634462 914.112604,356.873231 915.56134,358.030769 C917.010075,359.188308 918.387623,360.417846 919.691208,361.720308 C920.995717,360.417846 922.371415,359.188308 923.821075,358.030769 C925.270736,356.873231 926.999604,355.634462 929.011377,354.314462 C931.022226,352.993538 933.194868,351.944923 935.533,351.166769 C937.869283,350.389538 940.161189,350 942.406868,350 C950.522377,350 956.880358,352.243077 961.481736,356.728308 C966.084038,361.213538 968.384264,367.436 968.384264,375.393846 C968.384264,383.387692 964.235906,391.526462 955.939189,399.810154 L922.083887,432.365231 C921.43117,433.016 920.634226,433.340923 919.692132,433.340923 Z" id="Shape" fill="#FAFAFA" fill-rule="nonzero"></path>
            <g id="React" transform="translate(252.000000, 166.000000)">
                <g id="Layer_2" stroke="#FAFAFA" stroke-width="24">
                    <path d="M299.274612,169.126414 C341.952474,211.827379 375.475223,257.623241 395.076681,297.828207 C418.695206,346.271586 422.044703,387.234138 405.025709,404.261448 C387.289862,422.006897 343.853927,418.502276 292.362354,392.625103 C253.432738,373.061448 209.896444,339.621862 169.384375,299.086966 C127.848101,257.528207 93.2635128,213.425931 73.8036334,173.73469 C49.1797219,123.507172 46.8705582,80.7237241 64.2667961,63.318069 C81.1468996,46.427931 120.941219,48.9230345 168.832398,72.0657241 C209.297871,91.6213103 256.180974,126.008552 299.274612,169.126414 Z" id="Shape"></path>
                    <path d="M210.513834,145.353448 C268.804761,129.695172 325.200508,123.518828 369.804914,126.613724 C423.545615,130.343379 460.683993,147.904138 466.925097,171.161586 C473.429645,195.398069 448.694621,231.296 400.567778,262.998966 C364.180303,286.966483 313.479956,307.995103 258.146049,322.860828 C201.414277,338.100414 145.952232,346.043862 101.864857,343.080759 C46.0757471,339.332276 7.88180224,319.959586 1.5018077,296.185724 C-4.68732464,273.116552 17.3514346,239.872414 61.3142565,209.924897 C98.4589073,184.620621 151.653008,161.165034 210.513834,145.353448 Z" id="Shape"></path>
                    <path d="M145.583052,210.426966 C161.136081,152.078483 183.952626,100.106276 208.908978,62.9890345 C238.977391,18.2672414 272.731325,-5.15606897 295.986943,1.04986207 C320.221066,7.5157931 338.952443,46.8842759 342.367353,104.435724 C344.950713,147.948069 337.837736,202.398345 323.074142,257.78731 C307.937784,314.575793 287.118572,366.618828 262.534087,403.355931 C231.426237,449.843931 195.577299,473.276207 171.805547,466.933103 C148.738103,460.778276 130.959245,425.07131 126.983397,372.00531 C123.624043,327.169655 129.879484,269.345655 145.583052,210.426966 Z" id="Shape"></path>
                </g>
                <g id="Layer_3" transform="translate(190.000000, 202.000000)" fill="#FAFAFA">
                    <ellipse id="Oval" cx="47.5" cy="33.1904762" rx="32.9591837" ry="33.1904762"></ellipse>
                </g>
            </g>
        </g>
    </g>
</svg>